<?xml version="1.0" encoding="utf-8"?><!-- Uploaded to: SVG Repo, www.svgrepo.com, Generator: SVG Repo Mixer Tools -->
<svg width="800px" height="800px" viewBox="0 0 24 24" fill="none" xmlns="http://www.w3.org/2000/svg">
<path d="M23.4157 8.42766C23.4157 6.89681 22.9691 5.54488 22.0866 4.40416C22.283 3.68312 22.4929 2.25451 21.827 0.482871C21.7571 0.294546 21.6037 0.147921 21.4127 0.0819964C21.1733 -5.36498e-05 19.8859 -0.297341 17.3058 1.46891C16.2538 1.1918 15.144 1.04921 13.9952 1.04248C12.8505 1.04921 11.7407 1.1918 10.6914 1.46891C8.10862 -0.295991 6.82126 -5.36563e-05 6.58047 0.0820088C6.38944 0.146571 6.23609 0.294546 6.16614 0.484221C5.50162 2.25451 5.71147 3.68312 5.90921 4.40415C5.02541 5.54892 4.57746 6.89951 4.57746 8.42765C4.57746 13.713 7.35127 15.3918 9.97981 15.9985C9.39868 16.6348 8.78931 17.5629 8.6588 18.7427C7.76156 19.0682 5.43839 19.7193 4.59494 18.1925L4.59435 18.1914C4.54898 18.107 3.66919 16.4714 1.90723 16.3415C1.59379 16.3563 0.849892 16.3953 0.64408 17.0208C0.412705 17.7203 1.13777 18.2423 1.4929 18.4884L1.49329 18.4887C1.51289 18.5002 2.1943 18.9 2.66592 20.139L2.66601 20.1394C2.67935 20.2032 2.9664 21.5749 4.35281 22.4084C5.44646 23.0675 6.88179 23.202 8.61846 22.8119C8.61846 23.0208 8.61641 23.2379 8.61475 23.414C8.61407 23.4852 8.61347 23.5497 8.61308 23.6043L8.60903 23.993H9.95426L9.95694 23.6204L9.9571 23.6075C9.98116 21.6011 9.98163 21.5618 9.57222 21.3497C9.41617 21.269 9.23457 21.2501 9.06777 21.304C7.36473 21.8165 5.98052 21.8044 5.06712 21.269C4.2172 20.7681 4.00688 19.9668 3.96046 19.79C3.95876 19.7835 3.95728 19.7779 3.95599 19.7731C3.90756 19.6399 3.85509 19.5148 3.80263 19.3951C5.38997 21.2165 8.45436 20.3596 9.59374 19.8175C9.82916 19.7072 9.97847 19.4704 9.97847 19.2108C9.97847 17.3482 11.8233 16.1642 11.8508 16.1466L11.851 16.1464C12.0931 15.9944 12.2129 15.7066 12.151 15.4294C12.0891 15.151 11.8591 14.9411 11.5752 14.9075C8.77989 14.5726 5.92267 13.5408 5.92267 8.42766C5.92267 7.0986 6.34238 5.94037 7.16967 4.98797C7.33111 4.79963 7.37818 4.53732 7.28941 4.30595C7.16699 3.98848 6.83338 2.89617 7.28537 1.37071C7.73198 1.42183 8.67093 1.67472 10.1749 2.74955C10.3417 2.86927 10.5556 2.90425 10.7547 2.84775C11.7609 2.55315 12.8841 2.39441 13.9953 2.38768C15.1118 2.39441 16.2337 2.55315 17.2426 2.84775C17.4417 2.90425 17.6542 2.86927 17.8224 2.74955C19.3371 1.66666 20.2774 1.41913 20.7065 1.36667C21.1625 2.89348 20.8289 3.98848 20.7065 4.30595C20.6164 4.53732 20.6634 4.80098 20.8262 4.98797C21.6522 5.93768 22.0705 7.09456 22.0705 8.42766C22.0705 13.5421 19.2066 14.5672 16.4059 14.8967C16.1435 14.9277 15.9229 15.1079 15.8436 15.3595C15.7629 15.6097 15.8368 15.8855 16.0319 16.063C16.1113 16.1343 16.2189 16.2191 16.3453 16.3159C16.987 16.8069 18.0605 17.6289 18.0605 19.5606C18.0605 20.6287 18.043 23.989 18.043 23.989L19.3882 23.9957C19.3882 23.9957 19.4057 20.63 19.4057 19.5606C19.4057 17.7876 18.6994 16.6859 18.0201 15.9864C20.65 15.381 23.4157 13.7049 23.4157 8.42766Z" fill="white" stroke="white" stroke-width="1" stroke-linecap="round" stroke-linejoin="round"/>
</svg>
