<svg width="800px" height="800px" viewBox="0 0 24 24" fill="none" xmlns="http://www.w3.org/2000/svg">
<path d="M4.98 2.5C4.98 3.881 3.87 5 2.5 5C1.13 5 0.02 3.881 0.02 2.5C0.02 1.12 1.13 0 2.5 0C3.87 0 4.98 1.12 4.98 2.5ZM5 9.5C5 8.11929 3.88071 7 2.5 7V7C1.11929 7 0 8.11929 0 9.5V20.5C0 21.8807 1.11929 23 2.5 23V23C3.88071 23 5 21.8807 5 20.5V9.5ZM12.982 7.43498C12.982 7.19475 12.7873 7 12.547 7H10.498C9.12612 7 8.014 8.11213 8.014 9.484V20.5155C8.014 21.8877 9.12635 23 10.4985 23V23C11.8707 23 12.983 21.8877 12.983 20.5155V14.601C12.983 9.931 19.012 9.549 19.012 14.601V20.506C19.012 21.8834 20.1286 23 21.506 23V23C22.8834 23 24 21.8834 24 20.506V12.869C24 5.99695 17.2145 5.3362 14.0884 7.85237C13.7366 8.13551 12.982 7.88654 12.982 7.43498V7.43498Z" fill="white"/>
</svg>
