<svg width="800px" height="800px" viewBox="0 0 24 24" fill="none" xmlns="http://www.w3.org/2000/svg">
<path fill-rule="evenodd" clip-rule="evenodd" d="M2.29 13.94C2.65 13.35 3.29 12.99 3.99 12.99C4.17 12.99 4.39 12.98 4.63 12.98C4.43 12.65 4.26 12.31 4.12 11.95C3.41 10.16 3.46 8.13999 4.07 6.22999C4.32 5.40999 5.07 4.84999 5.92 4.82999C6.77 4.79999 7.54 5.31999 7.84 6.11999C8.17 6.99999 8.58 7.34999 9.04 7.56999C9.33 7.69999 9.7 7.79999 10.18 7.86999C10.84 5.56999 12.91 3.95999 15.45 3.95999C16.19 3.95999 16.91 4.12999 17.49 4.36999C17.72 4.45999 17.97 4.57999 18.2 4.70999L19.62 4.47999C20.33 4.35999 21.04 4.63999 21.49 5.19999C21.94 5.75999 22.05 6.51999 21.78 7.18999L20.91 9.33999C20.84 12.75 19.86 15.44 18.01 17.29C16.09 19.2 13.51 19.93 10.9 19.93C9.19 19.93 7.43 19.64 5.9 19.03C4.39 18.42 2.9 17.41 2.1 15.81C1.79 15.19 1.82 14.45 2.18 13.86L2.29 13.94ZM18.99 8.98999L19.99 6.48999L17.76 6.83999C17.74 6.81999 17.72 6.79999 17.7 6.77999C17.23 6.35999 16.33 5.96999 15.47 5.96999C13.47 5.96999 11.97 7.46999 11.97 9.46999V9.96999C11.24 9.96999 10.57 9.93999 9.97 9.84999C9.04 9.71999 8.25 9.46999 7.59 9.01999C6.89 8.53999 6.35 7.82999 5.96 6.79999C5.6 7.89999 5.5 8.99999 5.64 9.98999C5.79 11.01 6.2 11.93 6.89 12.66C7.41 13.21 8.1 13.65 8.94 13.93C8.23 14.4 7.3 14.65 6.41 14.78C6.37 14.78 6.33 14.79 6.29 14.79C5.33 14.92 4.43 14.92 3.92 14.92C4.31 15.71 5.03 16.35 5.95 16.83C7.31 17.55 9.11 17.91 10.91 17.91C15.41 17.91 18.91 15.41 18.91 8.90999L18.99 8.98999Z" fill="white"/>
</svg>
