<svg width="229" height="229" fill="none" xmlns="http://www.w3.org/2000/svg"><path d="M0 168.733V59.776C0 26.902 26.885 0 59.747 0h108.906C201.512 0 228.4 26.902 228.4 59.776v108.957c0 32.873-26.888 59.767-59.747 59.767H59.747C26.885 228.5 0 201.606 0 168.733z" fill="#0971BD"/><path fill-rule="evenodd" clip-rule="evenodd" d="M113.496 107.115C104.474 107.115 58 81.157 58 81.157V77.1c0-5.024 4.138-9.1 9.246-9.1h92.501a9.317 9.317 0 016.537 2.663 9.037 9.037 0 012.712 6.437l-.073 4.55s-45.973 25.465-55.427 25.465zm0 12.512c9.892 0 55.427-24.327 55.427-24.327l.077 54.6c0 5.024-4.142 9.1-9.253 9.1H67.245a9.319 9.319 0 01-6.534-2.665A9.038 9.038 0 0158 149.9l.077-54.6c-.008 0 46.397 24.327 55.419 24.327z" fill="#fff"/></svg>